{"accessors" : [{"bufferView" : 0, "byteOffset" : 0, "componentType" : 5123, "count" : 8979, "type" : "SCALAR", "max" : [8240], "min" : [0]}, {"bufferView" : 1, "byteOffset" : 0, "componentType" : 5126, "count" : 8241, "type" : "VEC3", "max" : [3.9128243923187256, 4.707788944244385, 8.794257164001465], "min" : [-3.9128241539001465, -4.707788944244385, 6.300000190734863], "name" : "POSITION"}, {"bufferView" : 1, "byteOffset" : 12, "componentType" : 5126, "count" : 8241, "type" : "VEC3", "max" : [1.0000044107437134, 1.0000038146972656, 1.0000044107437134], "min" : [-1.0000044107437134, -1.0000038146972656, -1.0000044107437134], "name" : "NORMAL"}], "asset" : {"generator" : "Aspose.3D 24.6.0", "version" : "2.0"}, "buffers" : [{"uri" : "data:application/octet-stream;base64,", "byteLength" : 215752}], "bufferViews" : [{"buffer" : 0, "byteOffset" : 0, "byteLength" : 17960, "target" : 34963}, {"buffer" : 0, "byteOffset" : 17964, "byteLength" : 197784, "byteStride" : 24, "target" : 34962}], "meshes" : [{"primitives" : [{"attributes" : {"POSITION" : 1, "NORMAL" : 2}, "indices" : 0, "mode" : 4}], "name" : ""}], "nodes" : [{"mesh" : 0, "name" : ""}], "scene" : 0, "scenes" : [{"nodes" : [0]}]}